<mxfile host="Electron" modified="2024-01-21T15:36:32.010Z" agent="Mozilla/5.0 (Windows NT 10.0; Win64; x64) AppleWebKit/537.36 (KHTML, like Gecko) draw.io/22.1.21 Chrome/120.0.6099.109 Electron/28.1.0 Safari/537.36" etag="QbfDi8K7N8gRypZpB_me" version="22.1.21" type="device">
  <diagram id="6a731a19-8d31-9384-78a2-239565b7b9f0" name="Page-1">
    <mxGraphModel dx="1098" dy="828" grid="0" gridSize="10" guides="1" tooltips="1" connect="1" arrows="1" fold="1" page="1" pageScale="1" pageWidth="827" pageHeight="1169" background="none" math="0" shadow="0">
      <root>
        <mxCell id="0" />
        <mxCell id="1" parent="0" />
        <mxCell id="6sBiXm-mP0gmVPff7rQP-2257" value="&lt;h1&gt;S1&lt;/h1&gt;&lt;div&gt;&lt;br&gt;&lt;/div&gt;" style="shape=mxgraph.cisco.switches.workgroup_switch;sketch=0;html=1;pointerEvents=1;dashed=0;fillColor=#036897;strokeColor=#ffffff;strokeWidth=2;verticalLabelPosition=bottom;verticalAlign=top;align=center;outlineConnect=0;" parent="1" vertex="1">
          <mxGeometry x="480" y="158" width="101" height="58" as="geometry" />
        </mxCell>
        <mxCell id="6sBiXm-mP0gmVPff7rQP-2260" value="&lt;h1&gt;PC-A&lt;/h1&gt;" style="shape=mxgraph.cisco.computers_and_peripherals.workstation;sketch=0;html=1;pointerEvents=1;dashed=0;fillColor=#036897;strokeColor=#ffffff;strokeWidth=2;verticalLabelPosition=bottom;verticalAlign=top;align=center;outlineConnect=0;" parent="1" vertex="1">
          <mxGeometry x="180" y="154" width="83" height="62" as="geometry" />
        </mxCell>
        <mxCell id="6sBiXm-mP0gmVPff7rQP-2261" value="" style="endArrow=none;html=1;rounded=0;strokeColor=#3399FF;edgeStyle=orthogonalEdgeStyle;curved=1;shadow=0;endSize=13;startSize=13;strokeWidth=5;" parent="1" source="6sBiXm-mP0gmVPff7rQP-2260" target="6sBiXm-mP0gmVPff7rQP-2257" edge="1">
          <mxGeometry width="50" height="50" relative="1" as="geometry">
            <mxPoint x="260" y="150" as="sourcePoint" />
            <mxPoint x="460" y="110" as="targetPoint" />
            <Array as="points">
              <mxPoint x="222" y="80" />
              <mxPoint x="531" y="80" />
            </Array>
          </mxGeometry>
        </mxCell>
        <mxCell id="6sBiXm-mP0gmVPff7rQP-2262" value="" style="endArrow=none;html=1;rounded=0;exitX=0.755;exitY=0.5;exitDx=0;exitDy=0;exitPerimeter=0;entryX=0;entryY=0.5;entryDx=0;entryDy=0;entryPerimeter=0;strokeWidth=3;" parent="1" edge="1">
          <mxGeometry width="50" height="50" relative="1" as="geometry">
            <mxPoint x="241.66499999999996" y="185" as="sourcePoint" />
            <mxPoint x="479" y="185" as="targetPoint" />
          </mxGeometry>
        </mxCell>
        <mxCell id="6sBiXm-mP0gmVPff7rQP-2265" value="Fa0/6" style="edgeLabel;html=1;align=center;verticalAlign=middle;resizable=0;points=[];fontStyle=1;fontSize=14;labelBackgroundColor=none;" parent="6sBiXm-mP0gmVPff7rQP-2262" vertex="1" connectable="0">
          <mxGeometry x="0.7405" relative="1" as="geometry">
            <mxPoint x="12" y="-25" as="offset" />
          </mxGeometry>
        </mxCell>
        <mxCell id="6sBiXm-mP0gmVPff7rQP-2264" value="&lt;h3 style=&quot;font-size: 14px;&quot;&gt;Fa0&lt;/h3&gt;" style="edgeLabel;html=1;align=center;verticalAlign=middle;resizable=0;points=[];rotation=0;fontSize=14;fontStyle=0;labelBackgroundColor=none;" parent="6sBiXm-mP0gmVPff7rQP-2262" vertex="1" connectable="0">
          <mxGeometry x="-0.7977" y="3" relative="1" as="geometry">
            <mxPoint x="-6" y="-22" as="offset" />
          </mxGeometry>
        </mxCell>
      </root>
    </mxGraphModel>
  </diagram>
</mxfile>
